# xmcd
#
# Track frame offsets: 
#        150
#        12608
#        25227
#        47119
#        61317
#        76003
#        90472
#        100661
#        114528
#        139035
#        155179
#        166123
#
# Disc length: 2476 seconds
#
# Revision: 0
# Processed by: cddbd v1.5.2PL0 Copyright (c) Steve Scherf et al.
# Submitted via: ExactAudioCopyFreeDBPlugin 1.0
#
DISCID=8f09aa0c
DTITLE=Daniel Norgren - Horrifying Deatheating Bloodspider
DYEAR=2010
DGENRE=Blues
TTITLE0=Big Black Bull
TTITLE1=Lovedog
TTITLE2=Nr. 1 Nr. 2 Nr. 3
TTITLE3=Highbird
TTITLE4=Blind
TTITLE5=Crooked John
TTITLE6=Get The Moon Up
TTITLE7=Mean Old Devil Got On II
TTITLE8=Lowbird
TTITLE9=Stuck In The Bones
TTITLE10=Perfect Jazz
TTITLE11=Though It Aches
EXTD=
EXTT0=
EXTT1=
EXTT2=
EXTT3=
EXTT4=
EXTT5=
EXTT6=
EXTT7=
EXTT8=
EXTT9=
EXTT10=
EXTT11=
PLAYORDER=
